<?xml version="1.0" encoding="UTF-8" standalone="no"?>
<!-- Created with Inkscape (http://www.inkscape.org/) -->

<svg
   xmlns:dc="http://purl.org/dc/elements/1.1/"
   xmlns:cc="http://creativecommons.org/ns#"
   xmlns:rdf="http://www.w3.org/1999/02/22-rdf-syntax-ns#"
   xmlns:svg="http://www.w3.org/2000/svg"
   xmlns="http://www.w3.org/2000/svg"
   xmlns:xlink="http://www.w3.org/1999/xlink"
   xmlns:sodipodi="http://sodipodi.sourceforge.net/DTD/sodipodi-0.dtd"
   xmlns:inkscape="http://www.inkscape.org/namespaces/inkscape"
   version="1.1"
   id="svg2"
   width="4583.8247"
   height="5987.0479"
   viewBox="0 0 4583.8247 5987.0479"
   sodipodi:docname="retractable_belt_stanchion_with_man.svg"
   inkscape:version="0.92.3 (unknown)"
   inkscape:export-filename="/media/juhele/data_2TB/_GRAFIKA/sloupek_letiste/retractable_belt_stanchion_with_man.png"
   inkscape:export-xdpi="96"
   inkscape:export-ydpi="96">
  <title
     id="title1466">Retractable belt stanchion / airport barrier with a man</title>
  <metadata
     id="metadata8">
    <rdf:RDF>
      <cc:Work
         rdf:about="">
        <dc:format>image/svg+xml</dc:format>
        <dc:type
           rdf:resource="http://purl.org/dc/dcmitype/StillImage" />
        <dc:title>Retractable belt stanchion / airport barrier with a man</dc:title>
        <dc:subject>
          <rdf:Bag>
            <rdf:li>remix+260145</rdf:li>
            <rdf:li>retractable belt stanchion</rdf:li>
            <rdf:li>crowd</rdf:li>
            <rdf:li>queue</rdf:li>
            <rdf:li>control</rdf:li>
            <rdf:li>barrier</rdf:li>
            <rdf:li>post</rdf:li>
            <rdf:li>railing</rdf:li>
            <rdf:li>belt</rdf:li>
            <rdf:li>airport</rdf:li>
            <rdf:li>security</rdf:li>
            <rdf:li>line</rdf:li>
            <rdf:li>man</rdf:li>
            <rdf:li>block</rdf:li>
            <rdf:li>entry</rdf:li>
          </rdf:Bag>
        </dc:subject>
        <dc:creator>
          <cc:Agent>
            <dc:title>Jan Helebrant</dc:title>
          </cc:Agent>
        </dc:creator>
        <cc:license
           rdf:resource="http://creativecommons.org/publicdomain/zero/1.0/" />
        <dc:description>Typical airport retractable belt stanchion / airport barrier with a man standing behind</dc:description>
      </cc:Work>
      <cc:License
         rdf:about="http://creativecommons.org/publicdomain/zero/1.0/">
        <cc:permits
           rdf:resource="http://creativecommons.org/ns#Reproduction" />
        <cc:permits
           rdf:resource="http://creativecommons.org/ns#Distribution" />
        <cc:permits
           rdf:resource="http://creativecommons.org/ns#DerivativeWorks" />
      </cc:License>
    </rdf:RDF>
  </metadata>
  <defs
     id="defs6">
    <linearGradient
       inkscape:collect="always"
       id="linearGradient862">
      <stop
         style="stop-color:#999999;stop-opacity:1"
         offset="0"
         id="stop858" />
      <stop
         id="stop866"
         offset="0.5242523"
         style="stop-color:#ececec;stop-opacity:1" />
      <stop
         style="stop-color:#cccccc;stop-opacity:1"
         offset="1"
         id="stop860" />
    </linearGradient>
    <linearGradient
       inkscape:collect="always"
       id="linearGradient821-3">
      <stop
         style="stop-color:#808080;stop-opacity:1"
         offset="0"
         id="stop817" />
      <stop
         id="stop825"
         offset="0.52374721"
         style="stop-color:#a4a4a4;stop-opacity:1;" />
      <stop
         style="stop-color:#808080;stop-opacity:1"
         offset="1"
         id="stop819" />
    </linearGradient>
    <radialGradient
       inkscape:collect="always"
       xlink:href="#linearGradient862"
       id="radialGradient892"
       gradientUnits="userSpaceOnUse"
       gradientTransform="matrix(1,0,0,0.31621896,0,-114.6676)"
       cx="1676.3636"
       cy="-158.92163"
       fx="1676.3636"
       fy="-158.92163"
       r="99.351501" />
    <linearGradient
       inkscape:collect="always"
       xlink:href="#linearGradient821-3"
       id="linearGradient998"
       gradientUnits="userSpaceOnUse"
       gradientTransform="matrix(0.9999252,0,0,0.86108691,0.12640651,478.08927)"
       x1="1031.8983"
       y1="3090.1272"
       x2="2360.7458"
       y2="3117.9661" />
    <linearGradient
       inkscape:collect="always"
       xlink:href="#linearGradient862"
       id="linearGradient1000"
       gradientUnits="userSpaceOnUse"
       x1="1065.9742"
       y1="2978.0103"
       x2="2301.5107"
       y2="3081.9424" />
    <linearGradient
       inkscape:collect="always"
       xlink:href="#linearGradient862"
       id="linearGradient1002"
       gradientUnits="userSpaceOnUse"
       gradientTransform="matrix(0.16719034,0,0,0.83031231,1394.6758,242.32313)"
       x1="1031.8983"
       y1="3090.1272"
       x2="2360.7458"
       y2="3117.9661" />
    <radialGradient
       inkscape:collect="always"
       xlink:href="#linearGradient862"
       id="radialGradient1004"
       gradientUnits="userSpaceOnUse"
       gradientTransform="matrix(1,0,0,0.31621896,0,-114.6676)"
       cx="1676.3636"
       cy="-158.92163"
       fx="1676.3636"
       fy="-158.92163"
       r="99.351501" />
    <linearGradient
       inkscape:collect="always"
       xlink:href="#linearGradient821-3"
       id="linearGradient1124"
       gradientUnits="userSpaceOnUse"
       gradientTransform="matrix(0.9999252,0,0,0.86108691,0.12640651,478.08927)"
       x1="1031.8983"
       y1="3090.1272"
       x2="2360.7458"
       y2="3117.9661" />
    <linearGradient
       inkscape:collect="always"
       xlink:href="#linearGradient862"
       id="linearGradient1126"
       gradientUnits="userSpaceOnUse"
       x1="1065.9742"
       y1="2978.0103"
       x2="2301.5107"
       y2="3081.9424" />
    <linearGradient
       inkscape:collect="always"
       xlink:href="#linearGradient862"
       id="linearGradient1128"
       gradientUnits="userSpaceOnUse"
       gradientTransform="matrix(0.16719034,0,0,0.83031231,1394.6758,242.32313)"
       x1="1031.8983"
       y1="3090.1272"
       x2="2360.7458"
       y2="3117.9661" />
    <filter
       inkscape:collect="always"
       style="color-interpolation-filters:sRGB"
       id="filter1401"
       x="-0.014696253"
       width="1.0293925"
       y="-0.0047679618"
       height="1.0095359">
      <feGaussianBlur
         inkscape:collect="always"
         stdDeviation="0.87302059"
         id="feGaussianBlur1403" />
    </filter>
  </defs>
  <sodipodi:namedview
     pagecolor="#ffffff"
     bordercolor="#666666"
     borderopacity="1"
     objecttolerance="10"
     gridtolerance="10"
     guidetolerance="10"
     inkscape:pageopacity="0"
     inkscape:pageshadow="2"
     inkscape:window-width="1920"
     inkscape:window-height="1140"
     id="namedview4"
     showgrid="false"
     inkscape:zoom="0.095249543"
     inkscape:cx="-184.4194"
     inkscape:cy="3109.1276"
     inkscape:window-x="0"
     inkscape:window-y="0"
     inkscape:window-maximized="1"
     inkscape:current-layer="g1464"
     inkscape:snap-global="false"
     fit-margin-left="20"
     fit-margin-bottom="20"
     fit-margin-top="20"
     fit-margin-right="20" />
  <g
     id="g940"
     transform="translate(-1056.3676,2660.7327)">
    <g
       id="g1464">
      <g
         style="fill:#1a1a1a;stroke:none;filter:url(#filter1401)"
         inkscape:label="Layer 1"
         id="layer1"
         transform="matrix(13.05641,0,0,13.05641,-536.89248,-7181.6658)">
        <g
           style="fill:#1a1a1a;stroke:none"
           id="g4378">
          <path
             sodipodi:nodetypes="cccccccccccccccccccccccccccccccscccccccc"
             inkscape:connector-curvature="0"
             id="path4348"
             d="m 265.31596,415.98158 v -6.92402 -3.77674 l -2.83256,-5.03566 v -5.03565 l -1.57364,-0.62945 -2.2031,-3.46202 -1.57364,-4.40619 -1.25891,-4.09147 0.62946,-2.51783 0.94418,-0.31473 h 0.31473 v -5.03565 l 0.31473,-6.60929 0.62945,-3.14729 2.83256,-4.40619 4.40619,-4.4062 3.14729,-2.83255 5.97984,-3.46201 h 2.83255 5.66511 l 5.03565,2.20309 4.09147,2.51783 5.03565,3.77674 1.88837,4.09147 1.25892,4.09147 v 4.72092 l 0.94418,1.88837 0.31473,6.60929 0.94418,0.94419 -0.42635,2.51783 c 0,0 0.29826,1.73333 0,2.51782 -0.44894,1.18081 -0.51783,2.83256 -0.51783,2.83256 l -2.51783,4.72092 -1.57364,1.88837 h -1.88837 l -2.2031,8.18294 0.31473,9.44185 v 3.14728 z"
             style="fill:#1a1a1a;fill-rule:evenodd;stroke:none;stroke-width:1px;stroke-linecap:butt;stroke-linejoin:miter;stroke-opacity:1" />
          <path
             sodipodi:nodetypes="ccccccccccccccccccccccccccccccccccccccccccccccccccccccccccsccccccccc"
             inkscape:connector-curvature="0"
             id="path4350"
             d="m 298.36328,411.57617 -32.73242,0.62891 h -3.14648 l -3.14844,2.20312 -4.72071,7.23828 v 1.25977 l -7.86914,3.14648 -6.92382,3.46289 -5.34961,2.51758 -4.0918,1.88868 -4.40625,6.29296 -3.46094,10.07227 -3.14844,15.10742 -3.77539,10.38477 -2.20312,7.24023 v 10.07031 l 1.88672,3.46289 -0.31446,4.40625 4.72071,1.88672 -1.25781,21.7168 1.57226,17.73633 1.57422,10.90429 0.94531,7.55274 v 3.14844 l 2.51758,3.14648 102.28711,-0.6289 5.34961,7.55273 1.57422,-2.83203 2.20312,-1.25977 1.88672,-3.77539 1.57422,-2.20312 -1.57422,-3.77735 9.44336,-29.26953 2.20313,-8.49804 1.57226,-6.92383 -0.94336,-10.07032 v -0.94531 l 4.40625,-4.40625 v -3.14648 l 0.94336,-5.03516 -1.25781,-7.86914 -6.29492,-16.36523 -5.66602,-13.21875 -4.40625,-11.01563 -8.81055,-9.4414 -9.75781,-7.24024 -6.92383,-4.08984 -6.60937,-2.20313 -4.7207,-7.86914 z m 27.69531,91.26953 5.34961,5.35157 1.25977,0.94335 -1.88867,17.31055 v 16.67969 l -4.0918,12.27539 -5.03516,-10.07227 0.31446,-3.46093 c 0,0 2.4203,2.73519 3.77734,2.20312 2.34802,-0.92062 2.20313,-7.23828 2.20313,-7.23828 l -0.62891,-11.33008 z m -86.86523,34.6211 -0.62891,5.98047 0.31446,3.14648 -4.40625,5.03516 1.57422,-13.21875 z"
             style="fill:#1a1a1a;fill-rule:evenodd;stroke:none;stroke-width:1px;stroke-linecap:butt;stroke-linejoin:miter;stroke-opacity:1" />
          <path
             sodipodi:nodetypes="cccccccssssssc"
             inkscape:connector-curvature="0"
             id="path4352"
             d="m 238.87878,447.45441 -4.4062,13.21859 v 7.23875 l 2.83256,11.64495 3.46201,8.81239 v 13.21859 l -3.14728,6.29456 c 0,0 0.71412,4.11887 0,5.97984 -0.50566,1.31772 -2.52636,1.76948 -2.83256,3.14728 -0.54719,2.46213 1.26863,4.89606 2.2031,7.23876 0.34765,0.87156 1.48764,1.60779 1.25891,2.51782 -0.53214,2.11717 -4.68298,1.69824 -5.35038,3.77674 -0.78103,2.43239 -0.001,7.66434 2.51783,7.23875 0.10344,-0.0175 0,-0.31473 0,-0.31473"
             style="fill:#1a1a1a;fill-rule:evenodd;stroke:none;stroke-width:1px;stroke-linecap:butt;stroke-linejoin:miter;stroke-opacity:1" />
          <path
             inkscape:connector-curvature="0"
             id="path4356"
             d="m 321.65232,446.82495 1.88837,11.95968 1.57365,11.95967 -1.57365,16.05115 v 15.10696 l 1.25892,1.88837"
             style="fill:#1a1a1a;fill-rule:evenodd;stroke:none;stroke-width:1px;stroke-linecap:butt;stroke-linejoin:miter;stroke-opacity:1" />
          <path
             sodipodi:nodetypes="ccccccccccccccccssssssssscccccccccccccccsccccccccccccccscccccscccccccccccccccccccc"
             inkscape:connector-curvature="0"
             id="path4360"
             d="m 225.66019,564.53334 v 5.97984 l 3.46201,9.75657 0.31473,5.35038 0.62946,20.45734 1.88837,13.53332 11.01549,39.02631 0.31473,8.18294 0.62945,16.36587 1.88837,14.4775 3.77674,18.25424 5.03566,14.4775 0.94418,2.51783 -1.88837,3.77674 0.31473,7.86821 2.51783,9.12712 c 0,0 -1.26698,8.16626 1.57364,8.40619 0.3019,0.0255 0.55098,-0.66302 0.31473,-0.85271 -1.36149,-1.09317 -2.74952,2.28111 -4.4062,2.83255 -1.39711,0.46504 -3.02677,-0.20041 -4.4062,0.31473 -0.9828,0.36702 -2.09165,0.92974 -2.51782,1.88837 -0.47072,1.05885 0.93581,2.48376 0.31472,3.46201 -0.65816,1.03665 -1.14201,0.0734 -1.46201,1.25891 -0.42706,1.58212 -0.27648,2.96535 1.14729,3.77674 2.86208,1.63107 6.47724,1.26082 9.75657,1.57364 3.44795,0.3289 10.38604,0.31473 10.38604,0.31473 l 8.81239,-2.83255 2.51783,-2.2031 6.60929,-0.94418 7.23875,-1.25892 3.77674,-2.83255 -0.94418,-6.6093 -0.62946,-1.25891 1.25891,-1.25891 v -3.46201 l 0.94419,-11.33022 -0.62946,-10.70077 -4.72092,-15.10695 -3.77674,-12.90386 0.62945,-16.05115 c 0,0 1.17274,-12.0758 0,-17.93951 -0.53493,-2.67468 -3.14728,-7.55348 -3.14728,-7.55348 l -1.88837,-2.2031 1.57364,-0.31473 0.31473,-24.23408 -1.25891,-10.38603 1.25891,-18.8837 3.14728,13.53332 1.88837,20.14261 2.2031,12.90386 1.57364,16.36587 1.57364,20.45734 3.46202,32.10229 2.20309,9.12712 1.25892,2.83255 c 0,0 -4.40939,9.2591 -4.09147,14.16278 0.45899,7.07953 8.49766,19.51315 8.49766,19.51315 l 1.57365,2.83256 -1.25892,3.46201 v 4.40619 l 7.23875,4.09147 c 0,0 1.30917,4.53026 3.14729,5.66511 4.19933,2.59265 14.79223,0.62946 14.79223,0.62946 h 9.12712 l 3.14728,-3.14728 -1.57364,-5.35039 -2.51783,-2.20309 -0.94418,-5.35039 -0.94419,-0.62945 5.66511,-13.84805 v -11.33022 l -1.25891,-2.51782 -0.94419,-12.58913 -2.20309,-23.60463 -2.2031,-29.58446 -1.88837,-15.73641 v -30.52865 l -1.25892,-23.91935 -1.25891,-8.81239 -0.94418,-17.93951 -0.31473,-16.05115 z"
             style="fill:#1a1a1a;fill-rule:evenodd;stroke:none;stroke-width:1px;stroke-linecap:butt;stroke-linejoin:miter;stroke-opacity:1" />
        </g>
      </g>
      <g
         transform="translate(-24)"
         id="g1122">
        <rect
           ry="0"
           rx="0"
           y="-105.14082"
           x="1777.368"
           height="254.3374"
           width="3191.1506"
           id="rect908"
           style="opacity:1;fill:#ffcc00;fill-opacity:1;stroke:#000000;stroke-width:4.56835413;stroke-linecap:round;stroke-linejoin:round;stroke-miterlimit:4;stroke-dasharray:none;stroke-opacity:1" />
        <g
           id="g962">
          <g
             id="g1048">
            <g
               transform="translate(7.4896774,-73.027184)"
               id="g904">
              <rect
                 ry="13.83165"
                 rx="530.41803"
                 y="-143.636"
                 x="1649.0707"
                 height="362.20645"
                 width="44.619637"
                 id="rect898"
                 style="opacity:1;fill:#4d4d4d;fill-opacity:1;stroke:#4d4d4d;stroke-width:4;stroke-linecap:round;stroke-linejoin:round;stroke-miterlimit:4;stroke-dasharray:none;stroke-opacity:1" />
              <rect
                 style="opacity:1;fill:#000000;fill-opacity:1;stroke:#000000;stroke-width:4;stroke-linecap:round;stroke-linejoin:round;stroke-miterlimit:4;stroke-dasharray:none;stroke-opacity:1"
                 id="rect900"
                 width="44.619637"
                 height="362.20645"
                 x="1646.9828"
                 y="-140.96809"
                 rx="530.41803"
                 ry="13.83165" />
            </g>
            <path
               inkscape:connector-curvature="0"
               id="path817"
               d="m 2278.2262,3176.9154 a 587.92932,127.39966 0 0 1 -587.9293,127.3996 587.92932,127.39966 0 0 1 -587.9293,-127.3996 587.92932,127.39966 0 0 1 587.9293,-127.3997 587.92932,127.39966 0 0 1 587.9293,127.3997 z"
               style="opacity:1;fill:#000000;fill-opacity:0.99521532;stroke:#585858;stroke-width:4;stroke-linecap:round;stroke-linejoin:round;stroke-miterlimit:4;stroke-dasharray:none;stroke-opacity:1" />
            <path
               sodipodi:nodetypes="sssssssss"
               inkscape:connector-curvature="0"
               id="rect815"
               d="m 1632.8601,2983.9523 h 113.9322 c 293.8296,0 530.3782,53.5175 530.3782,119.9942 v 65.9805 c 0,66.4768 -236.5486,119.9942 -530.3782,119.9942 h -113.9322 c -293.8295,0 -530.3781,-53.5174 -530.3781,-119.9942 v -65.9805 c 0,-66.4767 236.5486,-119.9942 530.3781,-119.9942 z"
               style="opacity:1;fill:url(#linearGradient1124);fill-opacity:1;stroke:#585858;stroke-width:4.0878787;stroke-linecap:round;stroke-linejoin:round;stroke-miterlimit:4;stroke-dasharray:none;stroke-opacity:1" />
            <path
               sodipodi:nodetypes="cssscccc"
               style="opacity:1;fill:url(#linearGradient1126);fill-opacity:1;stroke:#585858;stroke-width:4;stroke-linecap:round;stroke-linejoin:round;stroke-miterlimit:4;stroke-dasharray:none;stroke-opacity:1"
               d="m 2278.1112,3083.0308 c -10e-5,42.4627 -60.9582,80.2334 -171.2163,110.259 -110.2581,30.0257 -259.8002,46.8939 -415.7287,46.8939 -155.9285,0 -305.4706,-16.8682 -415.7287,-46.8939 -110.2581,-30.0256 -172.2006,-70.7491 -172.2006,-113.2118 -10.093,-67.8349 354.6022,-109.0502 505.0758,-131.2884 18.2636,32.917 136.9462,33.7871 159.2496,-0.033 124.8671,17.7649 492.4529,56.1183 510.5489,134.2742 z"
               id="path820"
               inkscape:connector-curvature="0" />
            <path
               sodipodi:nodetypes="sssssssss"
               inkscape:connector-curvature="0"
               id="rect870"
               d="m 1667.6735,-187.3713 h 19.0498 c 49.1291,0 88.6807,14.1452 88.6807,31.7157 v 3113.8604 c 0,17.5705 -39.5516,31.7157 -88.6807,31.7157 h -19.0498 c -49.1291,0 -88.6807,-14.1452 -88.6807,-31.7157 V -155.6556 c 0,-17.5705 39.5516,-31.7157 88.6807,-31.7157 z"
               style="opacity:1;fill:url(#linearGradient1128);fill-opacity:1;stroke:#331b1b;stroke-width:4;stroke-linecap:round;stroke-linejoin:round;stroke-miterlimit:4;stroke-dasharray:none;stroke-opacity:1" />
            <path
               style="opacity:1;fill:#000000;fill-opacity:1;stroke:#000000;stroke-width:3.92749548;stroke-linecap:round;stroke-linejoin:round;stroke-miterlimit:4;stroke-dasharray:none;stroke-opacity:1"
               d="m 1773.7513,-158.92163 a 97.387817,29.453087 0 0 1 -97.3878,29.45308 97.387817,29.453087 0 0 1 -97.3877,-29.45308 97.387817,29.453087 0 0 1 97.3877,-29.45308 97.387817,29.453087 0 0 1 97.3878,29.45308 z"
               id="path880"
               inkscape:connector-curvature="0" />
            <path
               inkscape:connector-curvature="0"
               id="path890"
               d="m 1773.7513,-164.92163 a 97.387817,29.453087 0 0 1 -97.3878,29.45308 97.387817,29.453087 0 0 1 -97.3877,-29.45308 97.387817,29.453087 0 0 1 97.3877,-29.45308 97.387817,29.453087 0 0 1 97.3878,29.45308 z"
               style="opacity:1;fill:url(#radialGradient892);fill-opacity:1;stroke:#000000;stroke-width:3.92749548;stroke-linecap:round;stroke-linejoin:round;stroke-miterlimit:4;stroke-dasharray:none;stroke-opacity:1" />
            <rect
               ry="13.83165"
               rx="530.41803"
               y="-143.636"
               x="1649.0707"
               height="362.20645"
               width="44.619637"
               id="rect894"
               style="opacity:1;fill:#4d4d4d;fill-opacity:1;stroke:#4d4d4d;stroke-width:4;stroke-linecap:round;stroke-linejoin:round;stroke-miterlimit:4;stroke-dasharray:none;stroke-opacity:1" />
            <rect
               style="opacity:1;fill:#000000;fill-opacity:1;stroke:#000000;stroke-width:4;stroke-linecap:round;stroke-linejoin:round;stroke-miterlimit:4;stroke-dasharray:none;stroke-opacity:1"
               id="rect896"
               width="44.619637"
               height="362.20645"
               x="1646.9828"
               y="-140.96809"
               rx="530.41803"
               ry="13.83165" />
            <rect
               ry="11.408216"
               rx="928.23157"
               y="-143.65532"
               x="1769.6935"
               height="343.17752"
               width="4.5931978"
               id="rect906"
               style="opacity:1;fill:#000000;fill-opacity:1;stroke:none;stroke-width:5.2269392;stroke-linecap:round;stroke-linejoin:round;stroke-miterlimit:4;stroke-dasharray:none;stroke-opacity:1" />
            <rect
               style="opacity:1;fill:#000000;fill-opacity:1;stroke:none;stroke-width:5.2269392;stroke-linecap:round;stroke-linejoin:round;stroke-miterlimit:4;stroke-dasharray:none;stroke-opacity:1"
               id="rect910"
               width="4.5931978"
               height="343.17752"
               x="1579.6935"
               y="-143.65532"
               rx="928.23157"
               ry="11.408216" />
            <path
               sodipodi:nodetypes="sssssss"
               inkscape:connector-curvature="0"
               id="path1014"
               d="m 1515.7039,-115.4515 c -4.767,2.83575 -8.6047,9.9498 -8.6047,15.95082 v 261.99364 c 0,6.00094 3.1351,3.15218 8.6047,5.71336 0,0 22.0629,3.41373 22.1312,-2.58706 l 3.183,-278.96916 c 0.068,-6.00098 -20.5474,-4.93736 -25.3142,-2.1016 z"
               style="opacity:1;fill:#000000;fill-opacity:1;stroke:#000000;stroke-width:2.19835043;stroke-linecap:round;stroke-linejoin:round;stroke-miterlimit:4;stroke-dasharray:none;stroke-opacity:1" />
            <path
               sodipodi:nodetypes="sssssss"
               inkscape:connector-curvature="0"
               id="rect914"
               d="m -2536.1186,1849.3818 c 4.5823,0 8.2713,6.2062 8.2713,13.9153 v 336.5655 c 0,7.709 -3.0136,6.4452 -8.2713,13.9152 0,0 -21.2083,21.2459 -21.2741,13.5894 l -3.0595,-355.9405 c -0.066,-7.6566 19.7513,-22.0449 24.3336,-22.0449 z"
               style="opacity:1;fill:#000000;fill-opacity:1;stroke:#000000;stroke-width:2.44290709;stroke-linecap:round;stroke-linejoin:round;stroke-miterlimit:4;stroke-dasharray:none;stroke-opacity:1"
               transform="matrix(-0.60661535,0.79499548,0,1,0,0)" />
            <rect
               transform="matrix(-0.60422531,0.79681351,0,1,0,0)"
               ry="14.002254"
               rx="197.4283"
               y="1877.7697"
               x="-2574.3147"
               height="366.67398"
               width="16.607994"
               id="rect916"
               style="opacity:1;fill:#4d4d4d;fill-opacity:1;stroke:none;stroke-width:2.45537281;stroke-linecap:round;stroke-linejoin:round;stroke-miterlimit:4;stroke-dasharray:none;stroke-opacity:1" />
            <rect
               transform="scale(-1,1)"
               style="opacity:1;fill:#ffcc00;fill-opacity:1;stroke:#000000;stroke-width:4;stroke-linecap:round;stroke-linejoin:round;stroke-miterlimit:4;stroke-dasharray:none;stroke-opacity:1"
               id="rect921"
               width="27.729208"
               height="262.48694"
               x="-1577.3312"
               y="-109.21559"
               rx="0"
               ry="0" />
          </g>
        </g>
        <g
           aria-label="DO NOT ENTER"
           style="font-style:normal;font-weight:normal;font-size:220.62785339px;line-height:1.25;font-family:sans-serif;letter-spacing:12.0493021px;word-spacing:0px;fill:#000000;fill-opacity:1;stroke:none;stroke-width:5.51569653"
           id="text944">
          <path
             inkscape:connector-curvature="0"
             d="m 2334.049,-55.253256 h 72.5013 q 21.4379,0 34.5808,5.817336 13.2506,5.817336 21.8689,16.697909 8.6183,10.880573 12.4965,25.3161846 3.8782,14.4356115 3.8782,30.5948784 0,25.316184 -5.8173,39.320882 -5.7096,13.896969 -15.9438,23.377072 -10.2342,9.372375 -21.9766,12.4965 -16.0516,4.309134 -29.0867,4.309134 h -72.5013 z m 48.801,35.765844 v 86.290484 h 11.9579 q 15.2974,0 21.7611,-3.339582 6.4637,-3.44731 10.1265,-11.850129 3.6628,-8.510547 3.6628,-27.470753 0,-25.10072779 -8.1874,-34.365374 -8.1873,-9.264646 -27.1476,-9.264646 z"
             style="font-style:normal;font-variant:normal;font-weight:normal;font-stretch:normal;font-family:'Arial Black';-inkscape-font-specification:'Arial Black, ';letter-spacing:12.0493021px;stroke-width:5.51569653"
             id="path1050" />
          <path
             inkscape:connector-curvature="0"
             d="m 2510.8151,23.819422 q 0,-38.674511 21.5457,-60.2202 21.5457,-21.545689 60.0048,-21.545689 39.4286,0 60.7588,21.222504 21.3302,21.114775 21.3302,59.250644 0,27.68621 -9.3723,45.461403 -9.2647,17.667465 -26.9321,27.578482 -17.5598,9.803284 -43.8455,9.803284 -26.7167,0 -44.2764,-8.510543 -17.452,-8.510547 -28.3326,-26.932111 -10.8806,-18.421564 -10.8806,-46.107774 z m 48.801,0.215457 q 0,23.915715 8.8337,34.365374 8.9415,10.449659 24.2389,10.449659 15.7284,0 24.3467,-10.234202 8.6183,-10.234202 8.6183,-36.7354 0,-22.29978757 -9.0492,-32.53399 -8.9415,-10.34193 -24.3467,-10.34193 -14.7588,0 -23.7002,10.449659 -8.9415,10.44965876 -8.9415,34.58083 z"
             style="font-style:normal;font-variant:normal;font-weight:normal;font-stretch:normal;font-family:'Arial Black';-inkscape-font-specification:'Arial Black, ';letter-spacing:12.0493021px;stroke-width:5.51569653"
             id="path1052" />
          <path
             inkscape:connector-curvature="0"
             d="m 2799.0639,-55.253256 h 45.5691 l 59.4661,87.367769 v -87.367769 h 46.0001 V 102.67664 h -46.0001 l -59.1429,-86.721394 v 86.721394 h -45.8923 z"
             style="font-style:normal;font-variant:normal;font-weight:normal;font-stretch:normal;font-family:'Arial Black';-inkscape-font-specification:'Arial Black, ';letter-spacing:12.0493021px;stroke-width:5.51569653"
             id="path1054" />
          <path
             inkscape:connector-curvature="0"
             d="m 2988.6497,23.819422 q 0,-38.674511 21.5457,-60.2202 21.5456,-21.545689 60.0047,-21.545689 39.4286,0 60.7588,21.222504 21.3303,21.114775 21.3303,59.250644 0,27.68621 -9.3724,45.461403 -9.2646,17.667465 -26.9321,27.578482 -17.5597,9.803284 -43.8455,9.803284 -26.7166,0 -44.2764,-8.510543 -17.452,-8.510547 -28.3326,-26.932111 -10.8805,-18.421564 -10.8805,-46.107774 z m 48.801,0.215457 q 0,23.915715 8.8337,34.365374 8.9414,10.449659 24.2389,10.449659 15.7283,0 24.3466,-10.234202 8.6183,-10.234202 8.6183,-36.7354 0,-22.29978757 -9.0492,-32.53399 -8.9415,-10.34193 -24.3466,-10.34193 -14.7588,0 -23.7003,10.449659 -8.9414,10.44965876 -8.9414,34.58083 z"
             style="font-style:normal;font-variant:normal;font-weight:normal;font-stretch:normal;font-family:'Arial Black';-inkscape-font-specification:'Arial Black, ';letter-spacing:12.0493021px;stroke-width:5.51569653"
             id="path1056" />
          <path
             inkscape:connector-curvature="0"
             d="m 3174.3572,-55.253256 h 148.3421 v 38.997697 h -49.7705 V 102.67664 h -48.801 V -16.255559 h -49.7706 z"
             style="font-style:normal;font-variant:normal;font-weight:normal;font-stretch:normal;font-family:'Arial Black';-inkscape-font-specification:'Arial Black, ';letter-spacing:12.0493021px;stroke-width:5.51569653"
             id="path1058" />
          <path
             inkscape:connector-curvature="0"
             d="m 3442.784,-55.253256 h 130.7823 v 33.719003 h -81.8736 V 3.5664749 h 75.9485 V 35.77728 h -75.9485 V 66.9108 h 84.2436 v 35.76584 H 3442.784 Z"
             style="font-style:normal;font-variant:normal;font-weight:normal;font-stretch:normal;font-family:'Arial Black';-inkscape-font-specification:'Arial Black, ';letter-spacing:12.0493021px;stroke-width:5.51569653"
             id="path1060" />
          <path
             inkscape:connector-curvature="0"
             d="m 3614.7023,-55.253256 h 45.5691 l 59.4661,87.367769 v -87.367769 h 46.0001 V 102.67664 h -46.0001 l -59.1429,-86.721394 v 86.721394 h -45.8923 z"
             style="font-style:normal;font-variant:normal;font-weight:normal;font-stretch:normal;font-family:'Arial Black';-inkscape-font-specification:'Arial Black, ';letter-spacing:12.0493021px;stroke-width:5.51569653"
             id="path1062" />
          <path
             inkscape:connector-curvature="0"
             d="m 3799.3325,-55.253256 h 148.3421 v 38.997697 h -49.7705 V 102.67664 h -48.801 V -16.255559 h -49.7706 z"
             style="font-style:normal;font-variant:normal;font-weight:normal;font-stretch:normal;font-family:'Arial Black';-inkscape-font-specification:'Arial Black, ';letter-spacing:12.0493021px;stroke-width:5.51569653"
             id="path1064" />
          <path
             inkscape:connector-curvature="0"
             d="m 3981.8083,-55.253256 h 130.7823 v 33.719003 H 4030.717 V 3.5664749 h 75.9485 V 35.77728 H 4030.717 V 66.9108 h 84.2436 v 35.76584 h -133.1523 z"
             style="font-style:normal;font-variant:normal;font-weight:normal;font-stretch:normal;font-family:'Arial Black';-inkscape-font-specification:'Arial Black, ';letter-spacing:12.0493021px;stroke-width:5.51569653"
             id="path1066" />
          <path
             inkscape:connector-curvature="0"
             d="M 4154.0497,102.67664 V -55.253256 h 81.3349 q 22.623,0 34.5809,3.878224 11.9578,3.878224 19.2834,14.435612 7.3255,10.449659 7.3255,25.531641 0,13.1428703 -5.6019,22.730702 -5.6019,9.480103 -15.4052,15.405167 -6.2482,3.770496 -17.1288,6.24825 8.726,2.908668 12.712,5.817336 2.6932,1.939112 7.7564,8.29509 5.171,6.355978 6.8946,9.803289 l 23.5926,45.784585 h -55.157 L 4228.1668,54.4143 q -4.9555,-9.372374 -8.8337,-12.173314 -5.2787,-3.662767 -11.9579,-3.662767 h -4.3091 v 64.098421 z m 49.0164,-93.9391998 h 20.5761 q 3.3396,0 12.9274,-2.1545689 4.8478,-0.969556 7.8642,-4.9555084 3.1241,-3.9859525 3.1241,-9.1569178 0,-7.6487191 -4.8477,-11.7424001 -4.8478,-4.093681 -18.2061,-4.093681 h -21.438 z"
             style="font-style:normal;font-variant:normal;font-weight:normal;font-stretch:normal;font-family:'Arial Black';-inkscape-font-specification:'Arial Black, ';letter-spacing:12.0493021px;stroke-width:5.51569653"
             id="path1068" />
        </g>
        <g
           id="g996"
           transform="matrix(-1,0,0,1,6744.5599,0)">
          <path
             style="opacity:1;fill:#000000;fill-opacity:1;stroke:#000000;stroke-width:2.19835043;stroke-linecap:round;stroke-linejoin:round;stroke-miterlimit:4;stroke-dasharray:none;stroke-opacity:1"
             d="m 1514.1346,-117.45153 c -4.767,2.83575 -8.6047,9.9498 -8.6047,15.95082 v 261.99364 c 0,6.00094 3.1351,3.15218 8.6047,5.71336 0,0 22.0629,3.41373 22.1312,-2.58706 l 3.183,-278.96916 c 0.068,-6.00098 -20.5474,-4.93736 -25.3142,-2.1016 z"
             id="path1012"
             inkscape:connector-curvature="0"
             sodipodi:nodetypes="sssssss" />
          <g
             transform="translate(7.4896774,-73.027184)"
             id="g968">
            <rect
               ry="13.83165"
               rx="530.41803"
               y="-143.636"
               x="1649.0707"
               height="362.20645"
               width="44.619637"
               id="rect964"
               style="opacity:1;fill:#4d4d4d;fill-opacity:1;stroke:#4d4d4d;stroke-width:4;stroke-linecap:round;stroke-linejoin:round;stroke-miterlimit:4;stroke-dasharray:none;stroke-opacity:1" />
            <rect
               style="opacity:1;fill:#000000;fill-opacity:1;stroke:#000000;stroke-width:4;stroke-linecap:round;stroke-linejoin:round;stroke-miterlimit:4;stroke-dasharray:none;stroke-opacity:1"
               id="rect966"
               width="44.619637"
               height="362.20645"
               x="1646.9828"
               y="-140.96809"
               rx="530.41803"
               ry="13.83165" />
          </g>
          <path
             inkscape:connector-curvature="0"
             id="path970"
             d="m 2278.2262,3176.9154 a 587.92932,127.39966 0 0 1 -587.9293,127.3996 587.92932,127.39966 0 0 1 -587.9293,-127.3996 587.92932,127.39966 0 0 1 587.9293,-127.3997 587.92932,127.39966 0 0 1 587.9293,127.3997 z"
             style="opacity:1;fill:#000000;fill-opacity:0.99521532;stroke:#585858;stroke-width:4;stroke-linecap:round;stroke-linejoin:round;stroke-miterlimit:4;stroke-dasharray:none;stroke-opacity:1" />
          <path
             sodipodi:nodetypes="sssssssss"
             inkscape:connector-curvature="0"
             id="path972"
             d="m 1632.8601,2983.9523 h 113.9322 c 293.8296,0 530.3782,53.5175 530.3782,119.9942 v 65.9805 c 0,66.4768 -236.5486,119.9942 -530.3782,119.9942 h -113.9322 c -293.8295,0 -530.3781,-53.5174 -530.3781,-119.9942 v -65.9805 c 0,-66.4767 236.5486,-119.9942 530.3781,-119.9942 z"
             style="opacity:1;fill:url(#linearGradient998);fill-opacity:1;stroke:#585858;stroke-width:4.0878787;stroke-linecap:round;stroke-linejoin:round;stroke-miterlimit:4;stroke-dasharray:none;stroke-opacity:1" />
          <path
             sodipodi:nodetypes="cssscccc"
             style="opacity:1;fill:url(#linearGradient1000);fill-opacity:1;stroke:#585858;stroke-width:4;stroke-linecap:round;stroke-linejoin:round;stroke-miterlimit:4;stroke-dasharray:none;stroke-opacity:1"
             d="m 2278.1112,3083.0308 c -10e-5,42.4627 -60.9582,80.2334 -171.2163,110.259 -110.2581,30.0257 -259.8002,46.8939 -415.7287,46.8939 -155.9285,0 -305.4706,-16.8682 -415.7287,-46.8939 -110.2581,-30.0256 -172.2006,-70.7491 -172.2006,-113.2118 -10.093,-67.8349 354.6022,-109.0502 505.0758,-131.2884 18.2636,32.917 136.9462,33.7871 159.2496,-0.033 124.8671,17.7649 492.4529,56.1183 510.5489,134.2742 z"
             id="path974"
             inkscape:connector-curvature="0" />
          <path
             sodipodi:nodetypes="sssssssss"
             inkscape:connector-curvature="0"
             id="path976"
             d="m 1667.6735,-187.3713 h 19.0498 c 49.1291,0 88.6807,14.1452 88.6807,31.7157 v 3113.8604 c 0,17.5705 -39.5516,31.7157 -88.6807,31.7157 h -19.0498 c -49.1291,0 -88.6807,-14.1452 -88.6807,-31.7157 V -155.6556 c 0,-17.5705 39.5516,-31.7157 88.6807,-31.7157 z"
             style="opacity:1;fill:url(#linearGradient1002);fill-opacity:1;stroke:#331b1b;stroke-width:4;stroke-linecap:round;stroke-linejoin:round;stroke-miterlimit:4;stroke-dasharray:none;stroke-opacity:1" />
          <path
             style="opacity:1;fill:#000000;fill-opacity:1;stroke:#000000;stroke-width:3.92749548;stroke-linecap:round;stroke-linejoin:round;stroke-miterlimit:4;stroke-dasharray:none;stroke-opacity:1"
             d="m 1773.7513,-158.92163 a 97.387817,29.453087 0 0 1 -97.3878,29.45308 97.387817,29.453087 0 0 1 -97.3877,-29.45308 97.387817,29.453087 0 0 1 97.3877,-29.45308 97.387817,29.453087 0 0 1 97.3878,29.45308 z"
             id="path978"
             inkscape:connector-curvature="0" />
          <path
             inkscape:connector-curvature="0"
             id="path980"
             d="m 1773.7513,-164.92163 a 97.387817,29.453087 0 0 1 -97.3878,29.45308 97.387817,29.453087 0 0 1 -97.3877,-29.45308 97.387817,29.453087 0 0 1 97.3877,-29.45308 97.387817,29.453087 0 0 1 97.3878,29.45308 z"
             style="opacity:1;fill:url(#radialGradient1004);fill-opacity:1;stroke:#000000;stroke-width:3.92749548;stroke-linecap:round;stroke-linejoin:round;stroke-miterlimit:4;stroke-dasharray:none;stroke-opacity:1" />
          <rect
             ry="13.83165"
             rx="530.41803"
             y="-143.636"
             x="1649.0707"
             height="362.20645"
             width="44.619637"
             id="rect982"
             style="opacity:1;fill:#4d4d4d;fill-opacity:1;stroke:#4d4d4d;stroke-width:4;stroke-linecap:round;stroke-linejoin:round;stroke-miterlimit:4;stroke-dasharray:none;stroke-opacity:1" />
          <rect
             style="opacity:1;fill:#000000;fill-opacity:1;stroke:#000000;stroke-width:4;stroke-linecap:round;stroke-linejoin:round;stroke-miterlimit:4;stroke-dasharray:none;stroke-opacity:1"
             id="rect984"
             width="44.619637"
             height="362.20645"
             x="1646.9828"
             y="-140.96809"
             rx="530.41803"
             ry="13.83165" />
          <rect
             ry="11.408216"
             rx="928.23157"
             y="-143.65532"
             x="1769.6935"
             height="343.17752"
             width="4.5931978"
             id="rect986"
             style="opacity:1;fill:#000000;fill-opacity:1;stroke:none;stroke-width:5.2269392;stroke-linecap:round;stroke-linejoin:round;stroke-miterlimit:4;stroke-dasharray:none;stroke-opacity:1" />
          <rect
             style="opacity:1;fill:#000000;fill-opacity:1;stroke:none;stroke-width:5.2269392;stroke-linecap:round;stroke-linejoin:round;stroke-miterlimit:4;stroke-dasharray:none;stroke-opacity:1"
             id="rect988"
             width="4.5931978"
             height="343.17752"
             x="1579.6935"
             y="-143.65532"
             rx="928.23157"
             ry="11.408216" />
          <path
             sodipodi:nodetypes="sssssss"
             inkscape:connector-curvature="0"
             id="path990"
             d="m -2536.1186,1849.3818 c 4.5823,0 8.2713,6.2062 8.2713,13.9153 v 336.5655 c 0,7.709 -3.0136,6.4452 -8.2713,13.9152 0,0 -21.2083,21.2459 -21.2741,13.5894 l -3.0595,-355.9405 c -0.066,-7.6566 19.7513,-22.0449 24.3336,-22.0449 z"
             style="opacity:1;fill:#000000;fill-opacity:1;stroke:#000000;stroke-width:2.44290709;stroke-linecap:round;stroke-linejoin:round;stroke-miterlimit:4;stroke-dasharray:none;stroke-opacity:1"
             transform="matrix(-0.60661535,0.79499548,0,1,0,0)" />
          <rect
             transform="matrix(-0.60422531,0.79681351,0,1,0,0)"
             ry="14.002254"
             rx="197.4283"
             y="1877.7697"
             x="-2574.3147"
             height="366.67398"
             width="16.607994"
             id="rect992"
             style="opacity:1;fill:#4d4d4d;fill-opacity:1;stroke:none;stroke-width:2.45537281;stroke-linecap:round;stroke-linejoin:round;stroke-miterlimit:4;stroke-dasharray:none;stroke-opacity:1" />
          <rect
             transform="scale(-1,1)"
             style="opacity:1;fill:#ffcc00;fill-opacity:1;stroke:#000000;stroke-width:4;stroke-linecap:round;stroke-linejoin:round;stroke-miterlimit:4;stroke-dasharray:none;stroke-opacity:1"
             id="rect994"
             width="27.729208"
             height="262.48694"
             x="-1577.3312"
             y="-109.21559"
             rx="0"
             ry="0" />
          <path
             style="opacity:1;fill:#000000;fill-opacity:1;stroke:#000000;stroke-width:1.90267074;stroke-linecap:round;stroke-linejoin:round;stroke-miterlimit:4;stroke-dasharray:none;stroke-opacity:1"
             d="m 1789.7076,-166.82102 c 2.7797,3.6429 5.0175,12.78184 5.0175,20.49094 v 336.5655 c 0,7.709 -1.8281,4.0494 -5.0175,7.33956 0,0 -12.8652,4.38539 -12.9051,-3.32342 l -1.856,-358.37279 c -0.04,-7.70907 11.9815,-6.3427 14.7611,-2.69979 z"
             id="path1006"
             inkscape:connector-curvature="0"
             sodipodi:nodetypes="sssssss" />
          <path
             sodipodi:nodetypes="sssssss"
             inkscape:connector-curvature="0"
             id="path1010"
             d="m 1814.8442,-117.45153 c 4.767,2.83575 8.6047,9.9498 8.6047,15.95082 v 261.99364 c 0,6.00094 -3.1351,3.15218 -8.6047,5.71336 0,0 -22.0629,3.41373 -22.1312,-2.58706 l -3.183,-278.96916 c -0.068,-6.00098 20.5474,-4.93736 25.3142,-2.1016 z"
             style="opacity:1;fill:#000000;fill-opacity:1;stroke:#000000;stroke-width:2.19835043;stroke-linecap:round;stroke-linejoin:round;stroke-miterlimit:4;stroke-dasharray:none;stroke-opacity:1" />
        </g>
      </g>
    </g>
  </g>
</svg>
